<svg enable-background="new 0 0 600 600" viewBox="0 0 600 600" xmlns="http://www.w3.org/2000/svg"><path d="m310.5 310.5h122.4v50.7h-101.3v21.1h101.3v50.6h-122.4zm0-128.5 107.5 107.5h-107.5zm-143.4-14.9h122.4v122.4h-122.4zm158.4 0h107.5v107.5zm-179.5-21.1v164.5h143.5v122.4h-122.4v-101.3h-21.1v122.4h308v-308z" fill="#b3b3b3"/><path d="m432.9 274.5-104.4-104.4-24.1-24.1h-14.9v21 29 93.5h-122.4v-93.5-28.9l-21.1-21.1v164.5h143.5v122.4 21.1h164.5v-158.4zm-122.4-92.5 107.5 107.5h-107.5zm122.4 250.9h-122.4v-50.6h122.4zm0-71.7h-122.4v-50.7h122.4z" fill="#333"/></svg>