<?xml version="1.0" encoding="utf-8"?>
<!-- Generator: Adobe Illustrator 19.2.1, SVG Export Plug-In . SVG Version: 6.00 Build 0)  -->
<svg version="1.1" id="Layer_1" xmlns="http://www.w3.org/2000/svg" xmlns:xlink="http://www.w3.org/1999/xlink" x="0px" y="0px"
	 viewBox="0 0 600 600" style="enable-background:new 0 0 600 600;" xml:space="preserve">
<style type="text/css">
	.st0{fill:#B3B3B3;}
	.st1{fill:#333333;}
</style>
<path class="st0" d="M310.5,310.5h122.4v50.7H331.6v21.1h101.3v50.6H310.5V310.5z M310.5,182L418,289.5H310.5V182z M167.1,167.1
	h122.4v122.4H167.1V167.1z M325.5,167.1h107.5v107.5L325.5,167.1z M146,146v164.5h143.5v122.4H167.1V331.6H146V454h308V146H146z"/>
<path class="st1" d="M432.9,274.5L432.9,274.5L328.5,170.1L304.4,146h-14.9v21V196v93.5H167.1V196v-28.9L146,146h0v164.5h143.5
	v122.4V454H454V295.6L432.9,274.5z M310.5,182L418,289.5H310.5V182z M432.9,432.9H310.5v-50.6h122.4V432.9z M432.9,361.2H310.5
	v-50.7h122.4V361.2z"/>
</svg>
