<svg height="74.63" viewBox="0 0 204.767 74.63" width="204.767" xmlns="http://www.w3.org/2000/svg"><g fill="#1a1818" transform="matrix(.92050485 -.39073113 .39073113 .92050485 441.015 -347.871)"><path d="m-541.845 202.871c2.811 5.84.688 11.325-5.558 14.332l-6.138 2.954-9.11-18.927 6.138-2.955c6.246-3.006 11.856-1.244 14.668 4.596zm-14.993.057a2.186 2.186 0 0 1 .539.773l4.789 9.95a2.168 2.168 0 0 1 .268.9l.08.028c.111-.187.287-.3.693-.5l1.594-.768c3.38-1.627 4.368-4.766 2.649-8.336s-4.787-4.755-8.167-3.128l-1.595.768a1.435 1.435 0 0 1 -.822.229z"/><path d="m-515.874 195.731a10.615 10.615 0 0 1 -8.062 13.3c-6.26 1.561-11.855-1.775-13.4-7.947s1.832-11.745 8.092-13.307a10.616 10.616 0 0 1 13.37 7.954zm-16.828 4.2a6.074 6.074 0 0 0 7.676 4.735 6.068 6.068 0 0 0 4.524-7.778 6.066 6.066 0 0 0 -7.647-4.741 6.073 6.073 0 0 0 -4.551 7.782z"/><path d="m-498.9 192.139a8.673 8.673 0 0 1 -1.877 1.906l.005.121a6.685 6.685 0 0 1 1.9 1.606l8.739 9.082-6.3.25-9.014-9.942-.089.033a8.1 8.1 0 0 1 .437 2.686l.3 7.556-4.648.184-.833-20.988 4.648-.185.256 6.447a8.6 8.6 0 0 1 -.219 2.8l.092.056 7.007-9.587 6.117-.243z"/><path d="m-469.235 199.407c-.814 5.52-4.488 8.222-10.038 7.4s-8.316-4.472-7.5-9.993l1.839-12.464 4.689.691-1.8 12.228c-.408 2.76.916 4.684 3.438 5.056 2.493.368 4.345-1.087 4.752-3.847l1.8-12.228 4.659.688z"/><path d="m-456.658 202.317a6.254 6.254 0 0 1 .221-2.611l-.111-.043a10.061 10.061 0 0 1 -1.394 2.231l-6.042 7.46-4.739-1.8 14.853-17.143.786.3.724 12.374a5.887 5.887 0 0 1 -.23 2.127l.112.042a5.9 5.9 0 0 1 1.24-1.743l8.755-8.773.757.287-.27 22.682-4.712-1.789.433-9.591a10.054 10.054 0 0 1 .44-2.594l-.113-.042a5.878 5.878 0 0 1 -1.6 2.089l-7.569 7.171-.617-.235z"/><path d="m-419.377 212.744-6.419-4.109a1.55 1.55 0 0 1 -.626-.579l-.083.018a2.108 2.108 0 0 1 -.36.839l-1.135 1.769a2.162 2.162 0 0 1 -.628.7l.019.082a1.572 1.572 0 0 1 .788.327l5.736 3.671-2.2 3.437-5.735-3.672a1.563 1.563 0 0 1 -.627-.579l-.083.018a2.1 2.1 0 0 1 -.359.839l-1.763 2.755a2.129 2.129 0 0 1 -.611.677l.018.082a1.572 1.572 0 0 1 .788.327l6.52 4.173-2.233 3.487-11.067-7.084 11.322-17.688 10.966 7.02z"/><path d="m-408.959 230.066a6.15 6.15 0 0 1 -.246 2.3l.109.059a13.394 13.394 0 0 1 2.237-2.915l5.975-6.487 3.376 3.11-14.431 15.667-.75-.691-.635-15.472a6.365 6.365 0 0 1 .266-2.325l-.109-.059a12.256 12.256 0 0 1 -2.235 2.958l-5.975 6.487-3.376-3.11 14.43-15.666.729.671z"/><path d="m-386.508 246.628-2.967-3.887a1.463 1.463 0 0 1 -.355-.711l-.084-.011a3.045 3.045 0 0 1 -.661.617l-12.687 9.685-2.821-3.7 12.687-9.685a2.791 2.791 0 0 1 .788-.45l.012-.084a1.461 1.461 0 0 1 -.593-.53l-2.985-3.911 3.363-2.567 9.666 12.665z"/><path d="m-386.431 265.717-6.6 3.44-2.15-4.122 6.6-3.44 8.512-13 2.552 4.893-4.539 6.021a11.126 11.126 0 0 1 -1.973 2.315l.028.053a9.8 9.8 0 0 1 3.013-.32l7.535-.276 2.552 4.894z"/></g></svg>