<svg xmlns="http://www.w3.org/2000/svg" width="170.168" height="179.438" viewBox="0 0 170.168 179.438"><g transform="translate(-86.962 1313.444) rotate(-150)"><path d="M484.922,1054.02a8.7,8.7,0,0,1,.833-2.541l-.058-.106a6.734,6.734,0,0,1-2.411-.6l-11.862-4.251,5.527-3.021,12.49,4.9.065-.069a8.115,8.115,0,0,1-1.585-2.211l-3.626-6.633,4.08-2.23,10.072,18.425-4.08,2.23-3.093-5.659a8.526,8.526,0,0,1-1.048-2.606l-.109-.009-2.013,11.7-5.371,2.935Z" fill="#1a1818"/><path d="M473.143,1072.261l-.74.612-21.607-9.887,3.93-3.25,4.294,2.132,5.8-4.8-1.265-4.636,3.93-3.25Zm-7.972-11-2.08,1.721a3.993,3.993,0,0,1-1.136.744l0,.043a5.253,5.253,0,0,1,1.523.57l2.741,1.431a7.6,7.6,0,0,1,1.885,1.244l.092-.076a7.279,7.279,0,0,1-.891-2.067l-.892-2.961a6.238,6.238,0,0,1-.251-1.622l-.042,0A4.007,4.007,0,0,1,465.171,1061.258Z" fill="#1a1818"/><path d="M447.294,1074.56a2.037,2.037,0,0,1-.582-.7l-.085.007a1.561,1.561,0,0,1-.437.733l-5.031,5.8-3.2-2.771,8.569-9.879,15.862,13.757-3.046,3.513Z" fill="#1a1818"/><path d="M441.539,1102.6l4.123-6.411a1.581,1.581,0,0,1,.581-.625l-.017-.083a2.129,2.129,0,0,1-.839-.361l-1.767-1.137a2.174,2.174,0,0,1-.7-.629l-.083.018a1.557,1.557,0,0,1-.328.788l-3.686,5.729-3.432-2.208,3.685-5.729a1.571,1.571,0,0,1,.581-.626l-.018-.083a2.1,2.1,0,0,1-.838-.36l-2.751-1.77a2.112,2.112,0,0,1-.676-.613l-.083.017a1.57,1.57,0,0,1-.328.789l-4.19,6.511-3.482-2.241,7.111-11.054,17.666,11.365-7.046,10.953Z" fill="#1a1818"/><path d="M428.517,1115.147a6.088,6.088,0,0,1-2.251.544l-.02.123a13.49,13.49,0,0,1,3.5,1.125l8.12,3.446-1.793,4.225-19.609-8.32.4-.938,14.359-5.8a6.375,6.375,0,0,1,2.279-.532l.019-.122a12.274,12.274,0,0,1-3.538-1.11l-8.12-3.445,1.793-4.226,19.61,8.321-.387.911Z" fill="#1a1818"/><path d="M420.67,1144.343c-6.335-1.367-9.359-6.41-7.9-13.185l1.438-6.657,20.529,4.433-1.437,6.657C431.84,1142.365,427.005,1145.711,420.67,1144.343Zm9.161-11.865a2.189,2.189,0,0,1-.94-.049L418.1,1130.1a2.162,2.162,0,0,1-.877-.343l-.072.046a1.419,1.419,0,0,1-.031.853l-.373,1.73c-.792,3.666,1.079,6.372,4.951,7.208s6.692-.857,7.484-4.523l.373-1.73a1.433,1.433,0,0,1,.324-.79Z" fill="#1a1818"/><path d="M430.834,1157.059l-.035.96-21.752,9.571.184-5.1,4.449-1.791.271-7.526-4.3-2.137.183-5.1Zm-13.522-1.36-.1,2.7a4,4,0,0,1-.2,1.344l.028.03a5.339,5.339,0,0,1,1.438-.757l2.893-1.1a7.6,7.6,0,0,1,2.183-.582l0-.12a7.279,7.279,0,0,1-2.135-.707l-2.806-1.3a6.132,6.132,0,0,1-1.379-.891l-.03.03A3.987,3.987,0,0,1,417.312,1155.7Zm17.346,8.523-3-5.122.113-3.119.122-.025,3.056,3.473-.173,4.767Z" fill="#1a1818"/><path d="M426.7,1186.823c-3.264.481-6.115-1.374-6.512-4.075a3.609,3.609,0,0,1-.062-.628l-.059.009a4.365,4.365,0,0,1-1.381,2.568l-6.446,6.891-.824-5.609,7.634-7.672a1.959,1.959,0,0,1,0-.607,2.73,2.73,0,0,1,.108-.5l-.068-.051a4.042,4.042,0,0,1-1.533.5l-7.212,1.061-.677-4.6,20.774-3.054,1.161,7.894C432.256,1183.369,430.439,1186.273,426.7,1186.823Zm.541-10.752a2.006,2.006,0,0,1-.868.28l-3,.441a2.16,2.16,0,0,1-.941-.014l-.051.069a1.432,1.432,0,0,1,.27.808l.371,2.524a2.342,2.342,0,1,0,4.63-.681l-.371-2.523a1.43,1.43,0,0,1,.027-.853Z" fill="#1a1818"/><path d="M415.194,1201.582l-1.272-4.473,20.2-5.746,1.273,4.472Z" fill="#1a1818"/><path d="M432.2,1221.768c-5.105,2.25-9.349.58-11.612-4.553s-.645-9.42,4.462-11.671l11.528-5.082,1.912,4.337-11.309,4.985c-2.553,1.126-3.476,3.271-2.448,5.6,1.016,2.305,3.235,3.1,5.788,1.973l11.309-4.985,1.9,4.31Z" fill="#1a1818"/><path d="M439.635,1232.371a6.237,6.237,0,0,1,1.627-2.055l-.071-.1a10.018,10.018,0,0,1-2.393,1.091l-9.158,2.883-2.957-4.118,21.851-6.091.49.683-6.229,10.716a5.894,5.894,0,0,1-1.366,1.646l.07.1a5.925,5.925,0,0,1,2-.77l12.145-2.479.472.658L443.361,1253.3l-2.94-4.094,5.658-7.758a10.041,10.041,0,0,1,1.8-1.919l-.07-.1a5.911,5.911,0,0,1-2.485.861l-10.269,1.8-.385-.536Z" fill="#1a1818"/></g></svg>