<svg height="134.63" viewBox="0 0 153.713 134.63" width="153.713" xmlns="http://www.w3.org/2000/svg"><g fill="#1a1818" transform="matrix(.588 -.809 .809 .588 110.047 -126.645)"><path d="m-244.354 63.3a10.615 10.615 0 0 1 -5.378 14.592c-5.846 2.726-11.974.518-14.662-5.246s-.44-11.878 5.4-14.6a10.614 10.614 0 0 1 14.64 5.254zm-15.716 7.329a6.072 6.072 0 0 0 8.436 3.184 6.066 6.066 0 0 0 2.957-8.5 6.064 6.064 0 0 0 -8.409-3.2 6.072 6.072 0 0 0 -2.984 8.513z"/><path d="m-228.8 49.537-.947 4.435a9.138 9.138 0 0 0 -4.762-.18c-1.335.349-1.846.886-1.641 1.669.168.639.586.933 2 1.368l3.966 1.288c3.147 1.006 4.69 2.4 5.345 4.9 1.017 3.889-1.09 6.736-5.791 7.966a15.328 15.328 0 0 1 -7.992-.078l.976-4.566a10.775 10.775 0 0 0 6.1.42c1.654-.433 2.416-1.315 2.15-2.331-.2-.754-.843-1.206-2.529-1.725l-3.659-1.182c-2.841-.9-4.546-2.438-5.161-4.789-.874-3.338 1.032-6.007 5.124-7.079a15 15 0 0 1 6.821-.116z"/><path d="m-199.4 55.8a10.612 10.612 0 0 1 -10.234 11.7c-6.434.46-11.368-3.79-11.822-10.133s3.829-11.251 10.262-11.71a10.613 10.613 0 0 1 11.794 10.143zm-17.3 1.231a6.072 6.072 0 0 0 6.743 5.985 6.064 6.064 0 0 0 5.794-6.88 6.064 6.064 0 0 0 -6.713-5.987 6.072 6.072 0 0 0 -5.824 6.882z"/><path d="m-192.193 45.86 8.668 1.057c3.663.447 5.747 2.7 5.365 5.823a4.249 4.249 0 0 1 -3.546 4.042 6.754 6.754 0 0 1 -1.827.11l-.013.119a8.227 8.227 0 0 1 1.824.4c2.672.9 3.9 2.712 3.567 5.452-.439 3.6-3.3 5.463-7.554 4.943l-9.026-1.1zm3.318 17.665 2.68.327c2 .243 3.148-.523 3.355-2.221.192-1.579-.752-2.51-2.778-2.757l-2.68-.327a1.42 1.42 0 0 1 -.817-.251l-.066.053a2.185 2.185 0 0 1 .036.942l-.406 3.335a2.126 2.126 0 0 1 -.258.875l.052.067a3.931 3.931 0 0 1 .882-.043zm1.042-8.79 2.2.268c1.637.2 2.659-.491 2.837-1.951.167-1.37-.636-2.223-2.3-2.427l-2.2-.269a1.419 1.419 0 0 1 -.816-.251l-.066.053a2.074 2.074 0 0 1 .043.882l-.341 2.8a1.962 1.962 0 0 1 -.255.845l.053.067a1.82 1.82 0 0 1 .845-.017z"/><path d="m-160.292 63.267a6.163 6.163 0 0 1 .75 2.191l.123.008a13.447 13.447 0 0 1 .8-3.587l2.683-8.4 4.373 1.4-6.478 20.291-.972-.31-7.1-13.762a6.367 6.367 0 0 1 -.739-2.22l-.124-.008a12.19 12.19 0 0 1 -.779 3.624l-2.683 8.4-4.372-1.4 6.479-20.292.942.3z"/><path d="m-129.909 78a10.611 10.611 0 0 1 -15 4.077c-5.61-3.182-7.364-9.453-4.226-14.985s9.421-7.245 15.031-4.062a10.612 10.612 0 0 1 4.195 14.97zm-15.081-8.56a6.071 6.071 0 0 0 2.3 8.718 6.064 6.064 0 0 0 8.636-2.516 6.065 6.065 0 0 0 -2.272-8.7 6.071 6.071 0 0 0 -8.664 2.498z"/><path d="m-109.675 82.672-4.16 1.805a9.144 9.144 0 0 0 -2.619-3.98c-1.06-.884-1.794-.988-2.312-.366-.423.507-.419 1.018.05 2.424l1.255 3.976c1.008 3.146.77 5.212-.882 7.194-2.574 3.087-6.115 3.025-9.849-.087a15.321 15.321 0 0 1 -4.576-6.551l4.283-1.858a10.781 10.781 0 0 0 3.2 5.206c1.314 1.1 2.473 1.2 3.146.4.5-.6.492-1.387-.065-3.062l-1.163-3.665c-.917-2.834-.655-5.116.9-6.982 2.21-2.65 5.489-2.649 8.738.06a15 15 0 0 1 4.054 5.486z"/><path d="m-97.681 100.068-3.254-3.651a1.446 1.446 0 0 1 -.406-.682h-.085a3.024 3.024 0 0 1 -.613.666l-11.917 10.618-3.093-3.472 11.917-10.618a2.773 2.773 0 0 1 .752-.509v-.085a1.454 1.454 0 0 1 -.631-.482l-3.274-3.674 3.158-2.814 10.6 11.894z"/><path d="m-105.55 118.128-2.654-3.82 17.25-11.984 2.654 3.82z"/></g></svg>