<svg height="115.583" viewBox="0 0 237.724 115.583" width="237.724" xmlns="http://www.w3.org/2000/svg"><g fill="#1a1818" transform="matrix(.15643447 -.98768834 .98768834 .15643447 -951.764 -159.56)"><path d="m-22 991.354-.063-4.534a9.15 9.15 0 0 0 4.681-.884c1.223-.639 1.6-1.276 1.227-1.994-.306-.586-.778-.778-2.256-.887l-4.152-.372c-3.292-.28-5.107-1.295-6.3-3.582-1.858-3.564-.438-6.808 3.87-9.055a15.321 15.321 0 0 1 7.807-1.7l.066 4.668a10.773 10.773 0 0 0 -6.035.948c-1.516.791-2.061 1.819-1.576 2.75.36.691 1.09.988 2.85 1.119l3.83.337c2.968.244 4.973 1.364 6.1 3.519 1.6 3.058.332 6.085-3.418 8.041a15.013 15.013 0 0 1 -6.631 1.626zm3.692 4.807 1.462-4.721 3.883-2.025 4.735 1.489.042.079-3.485 1.818-1.173-.369a2.546 2.546 0 0 1 -1.328-.729l-.106.056a2.333 2.333 0 0 1 -.162 1.505l-.343 1.16-3.483 1.816z"/><path d="m-38.3 999.073 3.969-2.854a1.444 1.444 0 0 1 .72-.334l.014-.084a3.027 3.027 0 0 1 -.6-.678l-9.319-12.956 3.774-2.715 9.32 12.955a2.8 2.8 0 0 1 .427.8l.084.014a1.465 1.465 0 0 1 .546-.577l3.993-2.873 2.471 3.434-12.931 9.3z"/><path d="m-42.186 1009.089-.687.671-22.349-8.064 3.646-3.564 4.456 1.769 5.385-5.262-1.645-4.516 3.647-3.564zm-8.855-10.306-1.93 1.887a3.978 3.978 0 0 1 -1.071.837v.042a5.27 5.27 0 0 1 1.565.442l2.85 1.2a7.59 7.59 0 0 1 1.981 1.084l.086-.084a7.241 7.241 0 0 1 -1.059-1.985l-1.133-2.877a6.141 6.141 0 0 1 -.385-1.6h-.042a3.951 3.951 0 0 1 -.862 1.054zm6.686 18.129 1.36-5.775 2.232-2.181.1.065-.18 4.623-3.412 3.333z"/><path d="m-62.559 1026.114 2.945-3.9a1.445 1.445 0 0 1 .589-.532l-.012-.084a3.072 3.072 0 0 1 -.772-.471l-12.736-9.611 2.8-3.711 12.738 9.611a2.761 2.761 0 0 1 .645.638l.084-.012a1.466 1.466 0 0 1 .351-.713l2.963-3.926 3.375 2.547-9.593 12.713z"/><path d="m-75.739 1036.793a6.1 6.1 0 0 1 -2.285.371l-.028.121a13.448 13.448 0 0 1 3.4 1.388l7.833 4.051-2.108 4.076-18.916-9.783.468-.906 14.754-4.695a6.382 6.382 0 0 1 2.312-.357l.029-.121a12.18 12.18 0 0 1 -3.442-1.375l-7.833-4.051 2.108-4.076 18.915 9.783-.454.879z"/><path d="m-78.369 1062.354 2.3-7.263a1.567 1.567 0 0 1 .4-.755l-.039-.075a2.126 2.126 0 0 1 -.9-.129l-2-.633a2.186 2.186 0 0 1 -.841-.424l-.076.039a1.556 1.556 0 0 1 -.11.846l-2.054 6.491-3.889-1.23 2.054-6.492a1.548 1.548 0 0 1 .4-.754l-.039-.077a2.117 2.117 0 0 1 -.9-.127l-3.117-.987a2.106 2.106 0 0 1 -.812-.414l-.075.039a1.571 1.571 0 0 1 -.111.846l-2.334 7.377-3.947-1.248 3.964-12.525 20.016 6.334-3.926 12.411z"/><path d="m-79.109 1090.036-3.881-2.345a9.126 9.126 0 0 0 1.726-4.439c.106-1.376-.235-2.034-1.042-2.1-.657-.051-1.072.248-1.946 1.445l-2.513 3.326c-1.979 2.645-3.8 3.648-6.373 3.45-4.008-.309-6.008-3.231-5.635-8.076a15.328 15.328 0 0 1 2.686-7.525l3.995 2.414a10.775 10.775 0 0 0 -2.388 5.623c-.132 1.7.453 2.712 1.5 2.792.778.06 1.415-.4 2.458-1.826l2.312-3.071c1.778-2.39 3.789-3.5 6.211-3.312 3.44.265 5.34 2.939 5.015 7.156a15 15 0 0 1 -2.125 6.488z"/><path d="m-90.72 1104.781-7.417.583-.364-4.635 7.417-.583 12.923-8.628.433 5.5-6.535 3.762a11.133 11.133 0 0 1 -2.722 1.358v.06a9.776 9.776 0 0 1 2.9.886l7.043 2.7.433 5.5z"/><path d="m-86.2 1121.866a6.233 6.233 0 0 1 2.235-1.37l-.033-.116a10.058 10.058 0 0 1 -2.622.2l-9.591-.441-1.362-4.884 22.613 1.794.226.808-9.534 7.922a5.866 5.866 0 0 1 -1.849 1.076l.032.116a5.872 5.872 0 0 1 2.14-.035l12.257 1.846.218.78-18.423 13.238-1.354-4.856 7.98-5.339a10.067 10.067 0 0 1 2.349-1.184l-.033-.115a5.91 5.91 0 0 1 -2.629-.046l-10.262-1.843-.177-.636z"/><path d="m-68.045 1139.309 4.049 7.735c1.712 3.269 1.043 6.262-1.748 7.723a4.251 4.251 0 0 1 -5.339-.625 6.727 6.727 0 0 1 -1.127-1.443l-.107.056a8.324 8.324 0 0 1 .7 1.731c.776 2.71-.018 4.752-2.464 6.033-3.216 1.683-6.367.386-8.357-3.415l-4.217-8.054zm-12.66 12.757 1.253 2.392c.933 1.781 2.217 2.294 3.732 1.5 1.409-.737 1.639-2.044.693-3.852l-1.252-2.391a1.431 1.431 0 0 1 -.257-.815l-.081-.024a2.189 2.189 0 0 1 -.755.563l-2.976 1.561a2.112 2.112 0 0 1 -.867.285l-.026.081a3.83 3.83 0 0 1 .536.7zm7.829-4.131 1.029 1.966c.765 1.462 1.915 1.911 3.217 1.229 1.222-.641 1.469-1.786.69-3.275l-1.029-1.966a1.431 1.431 0 0 1 -.257-.814l-.081-.025a2.061 2.061 0 0 1 -.7.536l-2.5 1.309a1.97 1.97 0 0 1 -.84.27l-.026.081a1.8 1.8 0 0 1 .497.689z"/><path d="m-54.29 1179.156a10.613 10.613 0 0 1 -15.433-1.891c-3.992-5.066-3.247-11.536 1.747-15.472s11.459-3.15 15.452 1.915a10.612 10.612 0 0 1 -1.766 15.448zm-10.733-13.617a6.072 6.072 0 0 0 -1.166 8.94 6.064 6.064 0 0 0 8.946.931 6.063 6.063 0 0 0 1.185-8.916 6.072 6.072 0 0 0 -8.965-.955z"/><path d="m-50.521 1189.851a2.034 2.034 0 0 1 -.713.57l.005.084a1.57 1.57 0 0 1 .726.449l5.718 5.129-2.825 3.15-9.739-8.735 14.024-15.637 3.462 3.1z"/><path d="m-32.13 1201.039-4.159 6.168-3.855-2.6 4.159-6.168 1.287-15.484 4.576 3.085-1.12 7.457a11.113 11.113 0 0 1 -.632 2.976l.05.033a9.828 9.828 0 0 1 2.5-1.717l6.493-3.835 4.577 3.085z"/></g></svg>